<?xml version="1.0" standalone="no"?><!DOCTYPE svg PUBLIC "-//W3C//DTD SVG 1.1//EN" "http://www.w3.org/Graphics/SVG/1.1/DTD/svg11.dtd"><svg t="1770794237999" class="icon" viewBox="0 0 1024 1024" version="1.1" xmlns="http://www.w3.org/2000/svg" p-id="12289" xmlns:xlink="http://www.w3.org/1999/xlink" width="200" height="200"><path d="M478.144 602.248c31.494 0 55.026 23.652 55.026 65.368 0 41.716-23.297 65.345-55.026 65.345-31.728 0-55.048-23.606-55.048-65.345s23.555-65.368 55.048-65.368z m-92.259 0l-55.1 76.546h33.85v-23.811h27.54v23.81h20.601v23.999h-20.555v26.729H363.78v-26.73h-67.957v-19.795l59.448-80.748h30.614z m247.782 0l-55.17 76.546h33.85v-23.811h27.563v23.81h20.532v23.999H639.91v26.729h-28.464v-26.73h-67.957v-19.795l59.425-80.748h30.753zM478.05 626.99c-14.863 0-24.968 11.919-24.968 40.626 0 28.707 10.293 40.65 24.968 40.65s25.228-11.92 25.228-40.65h-0.094c0-28.707-10.27-40.626-25.134-40.626z" fill="#263238" p-id="12290"></path><path d="M0.283 937.388a500.208 29.204 0 1 0 1000.416 0 500.208 29.204 0 1 0-1000.416 0Z" fill="#EBEBEB" p-id="12291"></path><path d="M211.084 239.9c-20.794 20.922 14.55 53.402-8.798 68.314 19.065 9.571 85.884 21.722 103.194-15.918-12.615-9.803-3.844-33.9-15.479-57.04-17.414-34.313-99.711-19.117-78.917 4.643z" fill="#263238" p-id="12292"></path><path d="M212.967 239.357c-6.476-1.083-28.379 9.804-12.074 39.034 13.132 23.631 2.193 25.309 2.193 25.309s12.9 0.36 5.16-17.209c-8.204-18.755-12.048-38.207 4.72-47.134z" fill="#263238" p-id="12293"></path><path d="M366.34 424.952a6.346 6.346 0 0 0-8.514-2.58l-1.523 0.8c-0.49 0.258-1.418 0.877-2.167 1.316a40.091 40.091 0 0 1-7.482 3.457 31.68 31.68 0 0 1-9.932 1.883 27.269 27.269 0 0 1-9.158-1.47 32.919 32.919 0 0 1-5.392-2.58c-2.219-4.902-4.334-9.855-6.14-14.964a230.226 230.226 0 0 1-5.83-18.213 258.376 258.376 0 0 1-4.438-18.678 239.58 239.58 0 0 1-1.728-9.391l-0.697-4.67a103.828 103.828 0 0 1-0.567-4.385v-0.516c-0.713-7.124-7.066-12.322-14.19-11.61-7.124 0.713-12.321 7.065-11.609 14.19 0.18 2.192 0.335 3.87 0.568 5.701 0.232 1.832 0.49 3.586 0.748 5.366 0.567 3.56 1.212 7.069 1.935 10.577a198.313 198.313 0 0 0 5.417 20.64c1.006 3.405 2.245 6.759 3.406 10.138 1.16 3.38 2.58 6.682 4.05 9.958a186.678 186.678 0 0 0 9.571 19.323l0.31 0.568a10.036 10.036 0 0 0 3.999 3.973 52.268 52.268 0 0 0 15.608 5.52c5.61 0.992 11.36 0.87 16.924-0.36a44.631 44.631 0 0 0 20.87-11.326c0.955-0.877 1.858-1.78 2.58-2.734 0.723-0.955 1.6-1.858 2.58-3.2a6.346 6.346 0 0 0 0.8-6.733z" fill="#FF8B7B" p-id="12294"></path><path d="M383.495 400.805h-0.748a16.072 16.072 0 0 0-12.9 6.037l-12.46 15.633v10.681c10.01 3.973 22.703-6.733 22.703-6.733l6.424-1.626a9.004 9.004 0 0 0 6.733-10.01l-0.929-6.269a8.978 8.978 0 0 0-8.823-7.713z" fill="#FF8B7B" p-id="12295"></path><path d="M302.436 340.513c8.333 8.566 8.849 34.132 8.849 34.132l-33.332 26.83s-13.699-37.923-6.114-51.313c6.424-11.351 19.968-20.561 30.597-9.649z" fill="#FFC100" p-id="12296"></path><path d="M302.436 340.513c8.333 8.566 8.849 34.132 8.849 34.132l-33.332 26.83s-13.699-37.923-6.114-51.313c6.424-11.351 19.968-20.561 30.597-9.649z" fill="#FFFFFF" opacity=".2" p-id="12297"></path><path d="M247.279 915.279l18.42 2.012 2.528-50.049-18.42-2.038z" fill="#FF8B7B" p-id="12298"></path><path d="M268.717 905.27h-21.644a1.677 1.677 0 0 0-1.729 1.573l-1.445 20.458a4.102 4.102 0 0 0 4 4.102H299.262c9.442 0 9.468-9.571 5.392-10.448-18.343-3.87-25.49-9.236-31.965-14.344a6.45 6.45 0 0 0-3.973-1.342z" fill="#263238" p-id="12299"></path><path d="M268.227 867.268l-1.315 25.798h-18.524l1.42-27.836z" fill="#000000" opacity=".2" p-id="12300"></path><path d="M278.16 467.932s15.943 133.456 15.943 192.793c-12.564 82.555-23.218 227.44-23.218 227.44l-25.49-0.671s-11.583-157.784-0.85-225.918c-13.751-61.04-30.727-201.9-30.727-201.9l64.342 8.256z" fill="#263238" p-id="12301"></path><path d="M229.014 505.082a76.131 76.131 0 0 0-8.824 4.592c3.509 26.34 8.127 59.492 13.029 90.089 8.358-25.18 3.844-80.543-4.205-94.68z" fill="#000000" opacity=".2" p-id="12302"></path><path d="M47.805 868.816L63 879.419l26.211-42.722-15.195-10.604z" fill="#FF8B7B" p-id="12303"></path><path d="M66.844 873.82l-12.9-17.362a1.651 1.651 0 0 0-2.27-0.438L34.39 867.113a4.076 4.076 0 0 0-0.903 5.65c5.392 7.353 5.496 7.404 12.28 16.537 4.206 5.598 12.59 16.872 18.37 24.637 5.778 7.766 13.337 1.884 11.583-1.935-7.74-17-7.74-25.798-7.585-34.157a6.553 6.553 0 0 0-1.29-4.024z" fill="#263238" p-id="12304"></path><path d="M89.186 836.697l-13.493 22.032-16.279-8.875 14.602-23.76z" fill="#000000" opacity=".2" p-id="12305"></path><path d="M141.015 886.72c-13.183 0-40.633 0-41.097-19.4-0.361-15.222 18.471-21.542 34.725-22.316a13.725 13.725 0 0 1 14.37 13.054v1.032c18.42-0.877 30.338-4.902 34.698-11.764 9.83-15.48-9.003-55.441-27.191-94.062-21.413-45.431-45.664-96.9-46.128-146.2a13.725 13.725 0 0 1 13.596-13.854c7.524 0.014 13.64 6.072 13.725 13.596 0.412 43.29 23.218 91.868 43.496 134.746 23.219 49.481 43.47 92.23 25.54 120.479-10.396 16.614-31.938 24.689-65.734 24.689z" fill="#FFC100" p-id="12306"></path><path d="M257.753 465.301s-44.012 152.52-65.502 207.833c-41.64 72.39-110.728 183.17-110.728 183.17l-22.057-12.9s51.597-127.96 86.296-187.555c9.313-61.917 44.528-199.32 44.528-199.32l67.463 8.772z" fill="#263238" p-id="12307"></path><path d="M70.817 886.281a7.353 7.353 0 0 0 3.818 3.122 2.58 2.58 0 0 0 2.58-0.851c0.435-0.4 0.647-0.988 0.568-1.574-0.31-3.096-8.308-7.12-9.907-7.894a0.413 0.413 0 0 0-0.516 0.18 0.593 0.593 0 0 0 0 0.645 38.13 38.13 0 0 0 3.457 6.372z m5.495 0c0.227 0.285 0.378 0.622 0.439 0.98a0.62 0.62 0 0 1-0.207 0.542 1.78 1.78 0 0 1-1.702 0.568c-1.703-0.335-3.948-3.096-6.115-7.456a27.192 27.192 0 0 1 7.585 5.263v0.103z" fill="#FFC100" p-id="12308"></path><path d="M67.231 880.012l0.155 0.13c2.58 1.418 9.287 2.58 10.758 0.438a2.244 2.244 0 0 0-0.13-2.58c-2.58-4.566-10.319 0.8-10.654 1.032a0.62 0.62 0 0 0-0.232 0.516 0.851 0.851 0 0 0 0.103 0.464z m9.803-1.496c0.076 0.09 0.145 0.185 0.207 0.284 0.284 0.49 0.335 0.851 0.18 1.058-0.851 1.238-5.804 0.8-8.694-0.336 1.935-1.16 6.45-3.508 8.307-1.006zM281.204 909.526a7.456 7.456 0 0 0 4.798-1.213 2.58 2.58 0 0 0 0.8-2.58 1.935 1.935 0 0 0-0.929-1.418c-2.58-1.574-10.654 2.425-12.228 3.25a0.439 0.439 0 0 0-0.206 0.516c0.08 0.22 0.263 0.384 0.49 0.439 2.384 0.583 4.822 0.92 7.275 1.006z m3.199-4.463a1.96 1.96 0 0 1 1.058 0.232c0.129 0 0.258 0.18 0.31 0.49a1.754 1.754 0 0 1-0.568 1.703c-1.264 1.16-4.825 1.315-9.623 0.464a26.882 26.882 0 0 1 8.694-2.89h0.129z" fill="#FFC100" p-id="12309"></path><path d="M273.929 908.649h0.18c2.58-1.187 7.61-5.908 6.785-8.359a2.244 2.244 0 0 0-2.064-1.367c-5.16-0.594-5.52 8.745-5.546 9.132a0.62 0.62 0 0 0 0.284 0.516 0.62 0.62 0 0 0 0.36 0.078z m4.644-8.772h0.36c0.542 0 0.878 0.232 0.955 0.49 0.49 1.42-2.812 5.16-5.47 6.785 0.233-2.244 1.059-7.275 4.206-7.275h-0.051zM190.29 456.658l87.87 11.249c19.813-66.715 26.34-98.938 28.094-114.443a16.846 16.846 0 0 0-11.66-18.059c-5.16-1.65-11.816-3.611-18.42-5.16a216.153 216.153 0 0 0-6.786-1.65 281.41 281.41 0 0 0-39.884-5.16c-1.987-0.18-3.947-0.284-5.934-0.387-3.896-0.206-7.74-0.258-11.248-0.258a18.962 18.962 0 0 0-18.91 20.639 791.77 791.77 0 0 1 1.65 21.542c0.981 15.479 1.29 27.862 1.058 38.697a333.73 333.73 0 0 1-5.83 52.99z" fill="#FFC100" p-id="12310"></path><path d="M190.29 456.658l87.87 11.249c19.813-66.715 26.34-98.938 28.094-114.443a16.846 16.846 0 0 0-11.66-18.059c-5.16-1.65-11.816-3.611-18.42-5.16a216.156 216.156 0 0 0-6.786-1.65 281.41 281.41 0 0 0-39.884-5.16c-1.987-0.18-3.947-0.284-5.934-0.387-3.896-0.206-7.74-0.258-11.248-0.258a18.962 18.962 0 0 0-18.91 20.639 791.774 791.774 0 0 1 1.65 21.542c0.981 15.479 1.29 27.862 1.058 38.697a333.73 333.73 0 0 1-5.83 52.99z" fill="#FFFFFF" opacity=".3" p-id="12311"></path><path d="M196.069 403.565c11.61-15.015 15.814-32.196 12.048-41.665l-13.106 2.942c1.058 15.427 1.342 27.862 1.058 38.723z" fill="#FFC100" opacity=".3" p-id="12312"></path><path d="M276.173 330.09a235.23 235.23 0 0 0-6.785-1.65 285.46 285.46 0 0 0-39.91-5.16c-1.987-0.155-3.947-0.258-5.908-0.361l-3.431-0.155 2.58 4.515c0.36 0.619 9.132 14.963 30.958 30.39l4.67 3.251 4.488-3.431a33.9 33.9 0 0 0 14.138-27.166l-0.8-0.232z" fill="#FFFFFF" p-id="12313"></path><path d="M239.178 296.76c-0.825 10.86-3.38 21.928-9.7 26.572 0 0 8.049 13.39 28.894 28.017 13.054-9.984 11.016-22.91 11.016-22.91-13.88-5.159-12.899-14.782-7.043-30.132l-10.835-5.83a7.095 7.095 0 0 0-12.332 4.282z" fill="#FF8B7B" p-id="12314"></path><path d="M251.51 292.477a7.095 7.095 0 0 0-12.203 3.302 43.858 43.858 0 0 0 18.962 19.375 46.98 46.98 0 0 1 4.05-16.847l-10.81-5.83z" fill="#000000" opacity=".2" p-id="12315"></path><path d="M222.306 262.705c5.392 20.974 7.224 29.952 20.045 38.698 19.272 13.26 43.858 2.064 44.812-20.071 0.903-19.943-8.049-50.9-30.442-55.338a29.54 29.54 0 0 0-34.415 36.711z" fill="#FF8B7B" p-id="12316"></path><path d="M275.683 230.328a113.256 113.256 0 0 1-43.857 24.173s16.02 34.08-13.957 25.49c-8.695-29.024 0-44.09 7.74-51.185 23.837-7.74 40.606-10.32 50.074 1.522z" fill="#263238" p-id="12317"></path><path d="M221.3 283.37a15.84 15.84 0 0 0 8.874 8.204c5.16 1.857 8.23-2.58 7.12-7.74-1.005-4.618-4.927-11.17-10.319-10.835a7.095 7.095 0 0 0-5.675 10.37z" fill="#FF8B7B" p-id="12318"></path><path d="M189.645 451.344l-4.98 7.353c-0.386 0.567 0.259 1.29 1.265 1.418l92.152 11.816c0.8 0 1.497-0.206 1.626-0.696l1.806-7.74c0-0.542-0.516-1.083-1.368-1.212l-89.005-11.403a1.548 1.548 0 0 0-1.496 0.464z" fill="#FFC100" p-id="12319"></path><path d="M200.3 462.824l-2.374-0.31c-0.464 0-0.8-0.36-0.722-0.644l2.425-10.087a0.851 0.851 0 0 1 0.98-0.413l2.4 0.31c0.464 0 0.8 0.335 0.722 0.644l-2.425 10.062c-0.077 0.31-0.516 0.49-1.006 0.438zM271.272 471.905l-2.374-0.283c-0.464 0-0.8-0.362-0.722-0.671l2.425-10.062c0-0.283 0.516-0.49 0.98-0.438l2.4 0.31c0.464 0 0.8 0.36 0.722 0.644l-2.425 10.088c-0.078 0.283-0.516 0.49-1.006 0.412zM235.799 467.365l-2.374-0.31c-0.49 0-0.825-0.335-0.748-0.645l2.425-10.061c0-0.31 0.516-0.49 1.006-0.439l2.374 0.31c0.464 0 0.8 0.361 0.748 0.645l-2.451 10.087c-0.052 0.284-0.516 0.464-0.98 0.413zM258.243 261.802c0.31 1.729 1.497 2.967 2.58 2.735 1.084-0.232 1.78-1.78 1.445-3.509-0.336-1.728-1.522-2.967-2.58-2.734-1.058 0.232-1.703 1.78-1.445 3.508zM277.747 258.061c0.335 1.729 1.522 2.941 2.58 2.735 1.058-0.206 1.78-1.806 1.445-3.534-0.336-1.729-1.523-2.941-2.58-2.735-1.058 0.206-1.755 1.806-1.445 3.534z" fill="#263238" p-id="12320"></path><path d="M278.624 254.733l3.921-2.012s-1.341 3.663-3.92 2.012z" fill="#263238" p-id="12321"></path><path d="M272.587 261.931a47.805 47.805 0 0 0 8.282 9.83 7.507 7.507 0 0 1-5.934 2.347l-2.348-12.177z" fill="#FF5652" p-id="12322"></path><path d="M260.41 281.074a0.516 0.516 0 0 0 0.62 0.8 13.854 13.854 0 0 1 12.59 0 0.516 0.516 0 0 0 0.696-0.181 0.542 0.542 0 0 0-0.155-0.723 14.912 14.912 0 0 0-13.596 0s0 0.052-0.155 0.104zM251.51 256.488a0.929 0.929 0 0 0 0.361-0.413 8.178 8.178 0 0 1 5.83-4.618 1.032 1.032 0 0 0 0.903-1.161 1.006 1.006 0 0 0-1.135-0.903 10.32 10.32 0 0 0-7.455 5.779 1.032 1.032 0 0 0 1.496 1.316zM283.552 243.408l0.129-0.13a1.032 1.032 0 0 0-0.258-1.444 10.32 10.32 0 0 0-9.34-1.393 1.058 1.058 0 0 0-0.567 1.342c0.215 0.526 0.814 0.78 1.342 0.567a8.152 8.152 0 0 1 7.378 1.187c0.41 0.291 0.97 0.236 1.316-0.13zM259.198 258.474l3.921-1.986s-1.522 3.637-3.921 1.986z" fill="#263238" p-id="12323"></path><path d="M124.117 620.66c-7.53 0-13.654-6.067-13.725-13.596-0.361-36.634 11.841-67.566 35.292-89.444 28.869-26.933 73.887-39.446 126.826-35.266 37.124 2.94 60.936-6.089 88.489-16.589 4.54-1.702 9.107-3.457 13.802-5.16 7.124-2.593 15.001 1.08 17.595 8.205 2.593 7.124-1.08 15.001-8.204 17.594-4.567 1.651-9.004 3.354-13.416 5.03-28.094 10.681-57.118 21.697-100.433 18.292-45.148-3.586-82.762 6.346-105.929 27.966-18.059 16.717-26.856 39.962-26.572 69.114a13.725 13.725 0 0 1-13.596 13.854h-0.13z" fill="#FFC100" p-id="12324"></path><path d="M441.53 505.783l-55.208 20.224c-9.592 3.514-20.217-1.413-23.731-11.005l-22.799-62.232c-3.514-9.593 1.414-20.218 11.006-23.732l55.207-20.225 35.498 96.897 0.026 0.073z" fill="#FFC100" p-id="12325"></path><path d="M441.53 505.783l-55.208 20.224c-9.592 3.514-20.217-1.413-23.731-11.005l-22.799-62.232c-3.514-9.593 1.414-20.218 11.006-23.732l55.207-20.225 35.498 96.897 0.026 0.073z" fill="#FFFFFF" opacity=".7" p-id="12326"></path><path d="M381.405 417.806l24.638-9.004 35.499 96.951-24.638 9.03a14.886 14.886 0 0 1-3.663-5.676l-30.958-84.593a14.705 14.705 0 0 1-0.878-6.708z" fill="#FFC100" opacity=".2" p-id="12327"></path><path d="M458.948 433.839l2.422-0.888 5.91 16.133-2.422 0.888zM455.215 423.791l-8.694-23.786a21.052 21.052 0 0 0-19.736-13.75 20.639 20.639 0 0 0-7.172 1.263l-15.685 5.753-0.903-2.425 15.71-5.753a23.22 23.22 0 0 1 8.05-1.419 23.683 23.683 0 0 1 22.161 15.48l8.694 23.786-2.425 0.851z" fill="#FFC100" p-id="12328"></path><path d="M460.446 506.044l-13.938 5.041c-10.04 3.632-21.123-1.563-24.755-11.603l-27.978-77.353c-3.632-10.04 1.563-21.123 11.603-24.755l13.938-5.041c10.04-3.632 21.123 1.563 24.754 11.603l27.98 77.353c3.63 10.04-1.564 21.123-11.604 24.755z" fill="#FFC100" p-id="12329"></path><path d="M428.772 425.623a7.74 7.74 0 1 1-14.538 5.316 7.74 7.74 0 0 1 14.538-5.316zM448.043 478.226a7.74 7.74 0 1 1-14.544 5.3 7.74 7.74 0 0 1 14.544-5.3z" fill="#263238" p-id="12330"></path><path d="M221.867 472.009l-0.206-0.233c-4.025-4.024-8.281-8.41-12.125-12.899-3.844-4.489-7.61-8.978-11.042-13.621a127.47 127.47 0 0 1-9.159-14.215 74.093 74.093 0 0 1-4.979-11.016c1.548-5.16 3.2-10.32 5.16-15.273 2.244-5.96 4.773-11.816 7.533-17.595 2.76-5.779 5.702-11.454 8.875-17.001a203.182 203.182 0 0 1 4.85-8.256l2.58-3.972c0.8-1.29 1.754-2.58 2.425-3.69l0.284-0.412c3.812-5.81 2.336-13.596-3.338-17.608-5.674-4.012-13.507-2.809-17.714 2.722a142.12 142.12 0 0 0-3.302 4.67c-1.032 1.521-1.96 3.044-2.941 4.566a255.333 255.333 0 0 0-5.47 9.236 203.808 203.808 0 0 0-9.468 19.194c-1.444 3.25-2.58 6.578-4.05 9.906-1.47 3.328-2.45 6.708-3.483 10.165a190.47 190.47 0 0 0-5.392 20.87v0.594a10.32 10.32 0 0 0 0.387 5.65 84.568 84.568 0 0 0 9.881 18.678 124.4 124.4 0 0 0 12.745 15.48 159.177 159.177 0 0 0 14.421 13.028 153.424 153.424 0 0 0 15.918 11.119 6.398 6.398 0 0 0 7.74-10.062l-0.13-0.025z" fill="#FF8B7B" p-id="12331"></path><path d="M251.845 484.83l-0.335-0.67a15.995 15.995 0 0 0-11.274-8.772l-19.581-3.973-9.571 4.773c1.031 10.732 16.356 17.156 16.356 17.156l4.36 4.98a9.03 9.03 0 0 0 11.97 1.418l5.16-3.69a8.978 8.978 0 0 0 2.915-11.222z" fill="#FF8B7B" p-id="12332"></path><path d="M204.299 324.441c-10.862 4.98-22.42 22.213-22.42 22.213l23.22 43.47s26.391-30.416 24.173-45.638c-1.806-12.925-11.145-26.391-24.973-20.045z" fill="#FFC100" p-id="12333"></path><path d="M204.299 324.441c-10.862 4.98-22.42 22.213-22.42 22.213l23.22 43.47s26.391-30.416 24.173-45.638c-1.806-12.925-11.145-26.391-24.973-20.045z" fill="#FFFFFF" opacity=".3" p-id="12334"></path><path d="M947.554 894.02c-22.728 0-45.07-4.669-55.905-18.806-51.288-67.076-50.823-202.003-50.385-332.569 0.258-70.301 5.805-136.732-2.012-188.33-4.592-30.416-20.639-51.287-36.84-62.07-24.045-15.892-57.067-7.353-71.179-3.716a13.725 13.725 0 1 1-6.862-26.572c17.62-4.566 58.95-15.221 93.159 7.378 23.09 15.247 43.057 42.465 48.862 80.879 8.126 53.66 2.58 121.072 2.322 192.431-0.439 125.974-0.877 256.23 44.734 315.8 3.69 4.798 18.06 9.107 41.923 7.868 2.116 0 4.18-0.232 6.218-0.412a13.467 13.467 0 0 1-1.394-6.012c0-7.58 6.145-13.724 13.725-13.724 30.004 0 45.793 2.58 48.837 16.304 0.877 3.947 1.341 13.854-13.157 20.64-10.836 5.081-36.686 10.912-62.046 10.912z" fill="#FFC100" p-id="12335"></path><path d="M647.208 905.862l-27.992-11.016 14.757-48.527 28.017 10.99z" fill="#FFC3BD" p-id="12336"></path><path d="M618.546 891.88l31.577 12.383a1.935 1.935 0 0 1 1.187 2.064l-3.096 19.658a3.225 3.225 0 0 1-4.386 2.451c-7.92-3.276-20.33-8.694-30.365-12.641-6.166-2.425-17.904-6.295-26.443-9.649-8.54-3.354-6.32-12.228-2.58-11.61 17.001 2.736 23.502-0.18 30.287-2.708a5.16 5.16 0 0 1 3.819 0.052z" fill="#263238" p-id="12337"></path><path d="M661.99 857.335l-28.017-11.016-7.61 25.025 28.017 11.016z" fill="#000000" opacity=".2" p-id="12338"></path><path d="M696.999 481.709s-25.334 125.226-35.009 186.988c-10.887 69.217-39.652 195.656-39.652 195.656l37.227 14.627s53.17-129.457 60.575-192.147c22.316-50.952 66.69-200.893 66.69-200.893l-89.831-4.231z" fill="#FFC100" p-id="12339"></path><path d="M620.532 864.559l40.865 16.072 6.991-12.383-45.689-18.936z" fill="#263238" p-id="12340"></path><path d="M610.522 892.421a6.682 6.682 0 0 1-3.508-2.58 3.199 3.199 0 0 1 0-2.94 1.6 1.6 0 0 1 1.341-1.032c2.709-0.284 7.74 6.32 8.23 7.094a0.516 0.516 0 0 1 0 0.568 0.516 0.516 0 0 1-0.516 0.232 26.263 26.263 0 0 1-5.547-1.342z m-1.367-5.391a1.29 1.29 0 0 0-0.67-0.13c-0.156 0-0.336 0-0.517 0.44a2.064 2.064 0 0 0 0 2.011c0.748 1.368 3.328 2.58 7.069 3.2a20.278 20.278 0 0 0-5.882-5.521z" fill="#FFC100" p-id="12341"></path><path d="M616.017 893.737a0.413 0.413 0 0 1-0.206-0.155c-1.651-1.96-3.973-8.023-2.58-10.113a1.703 1.703 0 0 1 2.038-0.645c0.775 0.198 1.43 0.713 1.806 1.42 1.6 2.863-0.206 8.9-0.284 9.158a0.542 0.542 0 0 1-0.413 0.36 0.361 0.361 0 0 1-0.36-0.025z m-0.877-9.855h-0.206c-0.671-0.155-0.826 0-0.903 0.232-0.774 1.239 0.49 5.624 1.96 8.024 0.736-2.387 0.736-4.94 0-7.327a1.806 1.806 0 0 0-0.85-0.929z" fill="#FFC100" p-id="12342"></path><path d="M751.614 557.53c-14.034 17.389-19.58 61.71-19.53 98.654 9.469-26.082 20.33-59.207 29.876-89.288l-10.346-9.365z" fill="#000000" opacity=".2" p-id="12343"></path><path d="M815.672 910.532h-30.081l-3.999-50.565h30.081z" fill="#FFC3BD" p-id="12344"></path><path d="M783.888 908.004h33.925a1.883 1.883 0 0 1 1.858 1.496l4.308 19.4a3.225 3.225 0 0 1-3.199 3.896c-8.565-0.155-22.058-0.67-32.841-0.67-6.656 0-18.988 0.696-28.147 0.696-9.158 0-10.319-9.055-6.63-9.88 16.847-3.69 21.852-8.747 27.218-13.597a5.315 5.315 0 0 1 3.508-1.341z" fill="#263238" p-id="12345"></path><path d="M811.673 859.967h-30.107l2.09 26.082h30.107z" fill="#000000" opacity=".2" p-id="12346"></path><path d="M733.426 483.283s16.666 139.544 20.175 189.774c4.876 69.914 23.734 207.936 23.734 207.936h39.988s4.283-140.964-2.94-203.68c9.957-54.718 6.81-189.825 6.81-189.825l-87.767-4.205z" fill="#FFC100" p-id="12347"></path><path d="M775.736 881.844h43.909l1.987-14.06-49.456-0.929z" fill="#263238" p-id="12348"></path><path d="M776.536 911.435a6.656 6.656 0 0 1-4.205-1.11 3.225 3.225 0 0 1-1.084-2.734c0-0.621 0.35-1.19 0.903-1.47 2.425-1.239 9.468 3.095 10.32 3.585a0.516 0.516 0 0 1 0.257 0.516 0.593 0.593 0 0 1-0.412 0.439c-1.891 0.475-3.83 0.735-5.78 0.774z m-3.25-4.515c-0.232-0.014-0.463 0.03-0.672 0.13-0.129 0-0.283 0.206-0.31 0.593-0.109 0.706 0.155 1.418 0.697 1.883 1.187 1.006 4.05 1.135 7.74 0.387a20.845 20.845 0 0 0-7.379-2.993h-0.077z" fill="#FFC100" p-id="12349"></path><path d="M782.211 910.661h-0.258c-2.244-1.238-6.63-6.011-6.165-8.462a1.677 1.677 0 0 1 1.65-1.341 2.76 2.76 0 0 1 2.194 0.644c2.58 2.09 3.07 8.385 3.095 8.643a0.568 0.568 0 0 1-0.232 0.49 0.593 0.593 0 0 1-0.284 0.026z m-4.411-8.849h-0.232c-0.671 0-0.723 0.413-0.749 0.542-0.283 1.419 2.58 5.16 4.747 6.759a12.538 12.538 0 0 0-2.58-6.862 1.935 1.935 0 0 0-1.186-0.439z" fill="#FFC100" p-id="12350"></path><path d="M747.229 290.851l-24.096-0.31c-8.101 0-16.15-0.257-24.122-0.386-2.425 0-4.798-0.155-7.198-0.258 0.155 0 0.258-0.284 0.387-0.413 1.703-1.806 3.406-3.663 5.16-5.443 0.877-0.93 1.737-1.832 2.58-2.71 0.8-0.876 1.832-1.857 2.373-2.58l2.193-2.785a13.338 13.338 0 0 0-13.983-21.104l-4.772 1.29c-1.47 0.439-2.941 0.93-4.412 1.42a127.074 127.074 0 0 0-8.54 3.327 126.645 126.645 0 0 0-16.381 8.72 117.719 117.719 0 0 0-15.35 11.687 101.698 101.698 0 0 0-13.7 15.247 23.4 23.4 0 0 0-2.58 4.437c-4.989 11.434 0.23 24.749 11.662 29.746l2.347 1.032a98.963 98.963 0 0 0 16.408 5.417c4.902 1.265 9.546 2.09 14.112 2.864 4.566 0.774 9.03 1.393 13.467 1.935 4.437 0.542 8.823 0.955 13.209 1.316 8.745 0.774 17.414 1.16 26.056 1.419 8.643 0.258 17.105 0.258 26.083-0.155 14.557-0.621 25.97-12.728 25.732-27.296-0.238-14.57-12.04-26.297-26.61-26.442l-0.025 0.025z" fill="#FFC3BD" p-id="12351"></path><path d="M761.263 337.934c-20.82 23.734-70.92 14.86-70.92 14.86l2.76-59.13a260.57 260.57 0 0 1 52.268-6.063c29.41-0.052 32.558 31.293 15.892 50.333z" fill="#263238" p-id="12352"></path><path d="M705.693 319.746c-1.238 9.545-2.58 22.393-3.38 39.678-10.86 54.95-14.911 93.88-5.314 122.285 7.585 9.365 106.419 7.559 124.194 5.753 10.32-25.54 11.403-98.86 12.615-160.493 0.315-17.55-12.236-32.699-29.539-35.653a238.61 238.61 0 0 0-67.386-2.27c-16.218 1.845-29.088 14.512-31.19 30.7z" fill="#263238" p-id="12353"></path><path d="M801.586 357.257c0.335 18.781 13.957 48.785 29.281 64.006 0.93-15.866 1.522-33.074 1.987-50.436l-31.268-13.57z" fill="#000000" opacity=".2" p-id="12354"></path><path d="M887.702 393.762l-0.878-2.064a196.069 196.069 0 0 0-12.615-24.947c-4.592-7.74-9.546-15.04-14.68-22.084-5.133-7.043-10.577-13.776-16.15-20.33-2.837-3.25-5.65-6.5-8.616-9.648l-4.463-4.695-4.747-4.799c-10.338-10.207-26.915-10.355-37.433-0.332-10.517 10.022-11.169 26.587-1.471 37.405l0.774 0.851 15.143 16.847c5.16 5.727 10.088 11.557 14.99 17.362 2.373 2.915 4.824 5.83 7.042 8.797 2.219 2.967 4.567 5.83 6.785 8.772 3.2 4.463 6.295 8.9 9.056 13.26a66.25 66.25 0 0 1-1.6 6.527 187.504 187.504 0 0 1-6.527 18.42 673.678 673.678 0 0 1-8.152 19.324c-2.838 6.423-5.882 13.131-8.591 19.58l-0.258 0.568a13.57 13.57 0 0 0 21.67 15.247 214.128 214.128 0 0 0 16.176-16.717 206.382 206.382 0 0 0 14.525-18.317c2.296-3.225 4.489-6.579 6.656-10.062a116.61 116.61 0 0 0 6.166-10.964 102.55 102.55 0 0 0 5.417-12.693 57.763 57.763 0 0 0 3.303-17.31 19.323 19.323 0 0 0-1.522-7.998z" fill="#FFC3BD" p-id="12355"></path><path d="M806.023 291.651c34.803 5.96 57.48 53.068 57.48 53.068l-41.949 45.121s-24.173-24.612-38.698-47.417c-15.66-24.819-1.754-55.003 23.167-50.772zM742.456 217.377c-5.83-9.778-7.74-23.219 2.94-36.918a10.835 10.835 0 0 1-10.628-5.16 63.955 63.955 0 0 1 41.51-14.446c31.216 0 33.538 12.047 32.48 20.277 21.361 1.368 36.944 56.912-17.208 66.741-30.984-32.635-49.094-30.494-49.094-30.494z" fill="#263238" p-id="12356"></path><path d="M806.797 182.136s8.694-8.874-2.115-19.607a14.55 14.55 0 0 1 10.164 10.113c1.523 6.244-2.683 11.249-8.049 9.494z" fill="#263238" p-id="12357"></path><path d="M794.827 241.086c-0.826 17.104-2.374 36.556 0.49 50.204-4.437 6.991-15.789 15.04-36.118 16.846-7.224-4.102-16.769-14.137-13.441-19.297 8.643-5.547 12.306-22.341 9.83-34.905l39.239-12.848z" fill="#FFC3BD" p-id="12358"></path><path d="M784.92 244.31l-29.384 9.624c0.999 5.35 1.042 10.835 0.129 16.201 8.771-0.284 20.922-6.888 25.489-13.08a16.305 16.305 0 0 0 3.766-12.744z" fill="#000000" opacity=".2" p-id="12359"></path><path d="M803.392 213.998c-5.444 20.974-7.559 33.538-20.407 42.335-19.323 13.235-43.625-1.6-44.58-23.76-0.825-19.969 8.204-50.927 30.65-55.338a29.565 29.565 0 0 1 34.337 36.763z" fill="#FFC3BD" p-id="12360"></path><path d="M799.058 183.968c-9.21 6.553-20.639 34.312 2.58 45.457 20.845-18.317 15.453-45.457-2.58-45.457z" fill="#263238" p-id="12361"></path><path d="M804.372 187.296c3.947-18.265-42.154-27.708-56.756-6.372-4.954 12.847 53.97 24.199 56.756 6.372zM769.983 236.262a44.58 44.58 0 0 0-15.17-3.844 0.542 0.542 0 0 0-0.541 0.567c0.06 0.344 0.348 0.6 0.696 0.62a43.213 43.213 0 0 1 14.55 3.663c0.3 0.131 0.65 0.007 0.8-0.284a0.542 0.542 0 0 0-0.335-0.722z" fill="#263238" p-id="12362"></path><path d="M808.423 236.932a20.639 20.639 0 0 1-14.344 6.476c-7.224 0.155-9.056-6.734-5.573-12.616 3.148-5.16 10.68-11.764 17.234-9.132 6.552 2.631 7.223 10.345 2.683 15.272z" fill="#FFC3BD" p-id="12363"></path><path d="M770.034 213.636c-0.335 1.729-1.522 2.967-2.58 2.735-1.057-0.232-1.754-1.806-1.418-3.534 0.335-1.729 1.522-2.941 2.58-2.58 1.057 0.36 1.754 1.573 1.418 3.38zM750.505 209.844c-0.335 1.728-1.522 2.941-2.58 2.735-1.058-0.207-1.78-1.806-1.445-3.535 0.336-1.728 1.523-2.967 2.58-2.734 1.058 0.232 1.677 1.805 1.445 3.534z" fill="#263238" p-id="12364"></path><path d="M756.542 211.83a63.284 63.284 0 0 1-11.145 13.183c2.58 3.432 8.281 2.76 8.281 2.76l2.864-15.943z" fill="#ED847E" p-id="12365"></path><path d="M767.222 203.6a1.11 1.11 0 0 1 1.032 0.31 8.23 8.23 0 0 0 6.863 2.967 1.058 1.058 0 0 1 1.186 0.877 1.006 1.006 0 0 1-0.877 1.161 10.32 10.32 0 0 1-8.72-3.637 1.006 1.006 0 0 1 0-1.445c0.154-0.114 0.33-0.193 0.516-0.232zM744.468 197.873a0.929 0.929 0 0 1-0.542-0.335 1.032 1.032 0 0 1 0.18-1.47 10.32 10.32 0 0 1 9.211-1.987c0.543 0.184 0.841 0.768 0.67 1.316a1.11 1.11 0 0 1-1.315 0.645 8.23 8.23 0 0 0-7.3 1.65 0.903 0.903 0 0 1-0.904 0.181z" fill="#263238" p-id="12366"></path><path d="M827.746 471.26l-22.161-0.154 11.454 25.437s18.91-4.05 17.879-14.318l-7.172-10.965z" fill="#FFC3BD" p-id="12367"></path><path d="M794.31 488.571l3.638 7.172a8.617 8.617 0 0 0 10.862 4.076l8.23-3.276-11.455-25.437-8.797 6.707a8.59 8.59 0 0 0-2.477 10.758z" fill="#FFC3BD" p-id="12368"></path><path d="M659.05 452.53a13.75 13.75 0 0 1-9.83-23.218c9.855-10.165 18.755-18.059 26.598-24.947 18.936-16.692 25.463-23.219 24.844-35.731a125.69 125.69 0 0 0-4.902-22.754c-5.65-20.768-12.047-44.27-1.083-63.13 5.882-10.138 15.866-17.078 29.694-20.638 7.273-1.726 14.59 2.685 16.458 9.922 1.87 7.237-2.397 14.639-9.596 16.65-9.726 2.58-12.073 6.527-12.899 7.869-5.16 8.9-0.18 27.32 3.844 42.103a143.31 143.31 0 0 1 5.83 28.636c1.29 26.444-14.318 40.22-34.105 57.66-7.456 6.605-15.943 14.086-25.076 23.477a13.648 13.648 0 0 1-9.778 4.102z" fill="#FFC100" p-id="12369"></path><path d="M689.156 255.43l21.464-5.495-5.004 27.45s-19.324 0.593-20.768-9.598l4.308-12.357zM725.687 264.485l-1.651 7.172a9.004 9.004 0 0 1-10.01 6.888l-8.41-1.16 5.004-27.45 9.855 4.257a9.004 9.004 0 0 1 5.212 10.293z" fill="#FFC3BD" p-id="12370"></path><path d="M651.084 407.098a7.095 7.095 0 0 1 0.001 10.034l-75.491 75.518a7.095 7.095 0 0 1-10.035-10.032L641.05 407.1a7.095 7.095 0 0 1 10.034-0.002zM690.733 446.697a7.095 7.095 0 0 1 0 10.033l-75.505 75.505a7.095 7.095 0 1 1-10.033-10.033l75.505-75.505a7.095 7.095 0 0 1 10.033 0z" fill="#263238" p-id="12371"></path><path d="M589.27 435.718l53.614-53.614a18.498 18.498 0 0 1 26.16 0l46.864 46.864a18.498 18.498 0 0 1 0 26.16l-53.614 53.614-73.024-73.024z" fill="#FFC100" p-id="12372"></path><path d="M589.27 435.718l53.614-53.614a18.498 18.498 0 0 1 26.16 0l46.864 46.864a18.498 18.498 0 0 1 0 26.16l-53.614 53.614-73.024-73.024z" fill="#FFFFFF" opacity=".7" p-id="12373"></path><path d="M607.762 417.084l-18.575 18.549 73.035 73.035 18.55-18.575a14.808 14.808 0 0 0-3.586-5.727L613.489 420.8a14.808 14.808 0 0 0-5.727-3.715z" fill="#FFC100" opacity=".2" p-id="12374"></path><path d="M585.39 426.944c6.03-6.03 15.806-6.03 21.835 0l63.703 63.703c6.03 6.03 6.03 15.806 0 21.836-6.03 6.03-15.807 6.03-21.837 0L585.39 448.78c-6.03-6.03-6.03-15.806 0-21.836z" fill="#FFC100" p-id="12375"></path><path d="M352.89 213.344a84.55 84.55 0 0 1-14.448-46.713c0-59.13 64.944-107.08 145.022-107.08 80.079 0 144.954 47.95 144.954 107.08 0 59.13-64.875 107.116-144.954 107.116-38.835 0-74.024-11.248-100.03-29.617l-49.773 12.693 19.228-43.479z" fill="#FFFFFF" p-id="12376"></path><path d="M352.89 213.344c-18.545-26.59-19.81-61.574-3.234-89.435a113.514 113.514 0 0 1 31.887-34.604 150.904 150.904 0 0 1 42.069-21.43 196.654 196.654 0 0 1 46.334-9.116 200.85 200.85 0 0 1 47.194 2.408c3.887 0.791 7.808 1.307 11.627 2.34l11.454 3.095 11.18 3.921c3.715 1.342 7.258 3.165 10.904 4.713a141.032 141.032 0 0 1 38.938 26.933 99.48 99.48 0 0 1 25.076 40.177 81.558 81.558 0 0 1 0.482 47.332 98.86 98.86 0 0 1-24.457 40.555 138.968 138.968 0 0 1-38.595 27.519 170.236 170.236 0 0 1-45.061 14.447 198.786 198.786 0 0 1-47.16 2.683 185.13 185.13 0 0 1-46.368-8.806 155.686 155.686 0 0 1-42.172-21.051h0.619L333.66 257.2l-0.757 0.172 0.344-0.688 19.641-43.341z m0 0l-19.057 43.617-0.447-0.516 49.843-13.072h0.344l0.31 0.207a170.89 170.89 0 0 0 87.783 28.447 194.968 194.968 0 0 0 46.506-3.061 167.656 167.656 0 0 0 44.236-14.138 136.182 136.182 0 0 0 37.666-26.9 95.145 95.145 0 0 0 23.528-39.247 78.118 78.118 0 0 0-0.55-45.371 95.833 95.833 0 0 0-24.079-38.87 136.698 136.698 0 0 0-37.838-26.418c-3.44-1.513-6.88-3.44-10.698-4.644l-10.973-3.921-11.248-3.061c-3.75-0.998-7.602-1.548-11.42-2.34a202.364 202.364 0 0 0-46.506-2.545 192.113 192.113 0 0 0-45.75 8.737 149.39 149.39 0 0 0-41.655 20.639 114.683 114.683 0 0 0-31.784 33.71 83.518 83.518 0 0 0-12.074 44.545 84.894 84.894 0 0 0 13.862 44.202z" fill="#263238" p-id="12377"></path><path d="M408.855 184.174v7.98h-32.437v-46.746h31.852v7.98H385.5v11.248h19.675v7.362H385.5v12.176zM415.975 192.155v-46.747h20.64c2.06-0.018 4.097 0.44 5.95 1.341a15.686 15.686 0 0 1 4.713 3.44 16.89 16.89 0 0 1 3.095 4.988 15.686 15.686 0 0 1-1.169 13.76 12.968 12.968 0 0 1-6.157 5.365l10.663 17.578h-10.32l-9.562-15.686h-8.943v15.686l-8.91 0.275z m9.082-23.632h11.385a5.022 5.022 0 0 0 2.34-0.584 6.501 6.501 0 0 0 1.891-1.617c0.541-0.73 0.96-1.543 1.239-2.408a9.322 9.322 0 0 0 0.447-2.958 8.6 8.6 0 0 0-0.516-3.027 7.946 7.946 0 0 0-1.41-2.408 6.364 6.364 0 0 0-2.03-1.582 5.297 5.297 0 0 0-2.34-0.55h-11.006v15.134zM459.73 192.155v-46.747h20.639c2.072-0.021 4.12 0.438 5.985 1.341a15.995 15.995 0 0 1 4.678 3.44 15.582 15.582 0 0 1 3.096 4.988 14.894 14.894 0 0 1 1.135 5.641 15.514 15.514 0 0 1-2.27 8.256 13.106 13.106 0 0 1-6.158 5.366l10.664 17.577h-10.32l-9.528-15.685h-8.943v15.685l-8.978 0.138z m9.115-23.632h11.386a5.022 5.022 0 0 0 2.34-0.584 5.95 5.95 0 0 0 1.857-1.617 7.602 7.602 0 0 0 1.238-2.408 9.356 9.356 0 0 0 0.481-2.958 8.6 8.6 0 0 0-0.516-3.027 8.015 8.015 0 0 0-1.444-2.408 6.364 6.364 0 0 0-2.03-1.582 5.194 5.194 0 0 0-2.339-0.55h-10.973v15.134zM523.47 192.464a21.155 21.155 0 0 1-9.323-1.995 22.53 22.53 0 0 1-7.154-5.331 23.563 23.563 0 0 1-4.644-7.602 24.08 24.08 0 0 1-1.651-8.772 23.426 23.426 0 0 1 1.754-8.943 24.388 24.388 0 0 1 4.781-7.568 23.184 23.184 0 0 1 7.293-5.228 21.292 21.292 0 0 1 9.15-1.927c3.202-0.04 6.37 0.667 9.253 2.064a22.806 22.806 0 0 1 7.12 5.435 24.629 24.629 0 0 1 4.61 7.636 23.838 23.838 0 0 1 0 17.612 24.491 24.491 0 0 1-4.61 7.499 23.115 23.115 0 0 1-7.258 5.194 21.396 21.396 0 0 1-9.322 1.926z m-13.554-23.631c0 1.994 0.302 3.977 0.895 5.882a15.48 15.48 0 0 0 2.683 4.988 13.76 13.76 0 0 0 4.265 3.44 12.658 12.658 0 0 0 5.78 1.307c2.018 0.041 4.016-0.42 5.812-1.342a13.209 13.209 0 0 0 4.3-3.612 16.236 16.236 0 0 0 2.614-5.022c0.59-1.846 0.892-3.772 0.895-5.71a17.822 17.822 0 0 0-0.963-5.848 15.48 15.48 0 0 0-2.683-4.987 12.865 12.865 0 0 0-4.3-3.44 13.346 13.346 0 0 0-11.524 0 12.83 12.83 0 0 0-4.3 3.44 15.617 15.617 0 0 0-2.58 4.987 17.784 17.784 0 0 0-0.893 5.917zM553.292 192.155v-46.747h20.64c2.06-0.018 4.097 0.44 5.95 1.341a15.686 15.686 0 0 1 4.713 3.44 16.89 16.89 0 0 1 3.095 4.988 15.686 15.686 0 0 1-1.17 13.76 12.968 12.968 0 0 1-6.156 5.365l10.663 17.578h-10.32l-9.562-15.686h-8.943v15.686l-8.91 0.275z m9.082-23.632h11.385a5.022 5.022 0 0 0 2.34-0.584 6.501 6.501 0 0 0 1.891-1.617c0.541-0.73 0.96-1.543 1.239-2.408a9.322 9.322 0 0 0 0.447-2.958 8.6 8.6 0 0 0-0.516-3.027 7.946 7.946 0 0 0-1.41-2.408 6.364 6.364 0 0 0-2.03-1.582 5.297 5.297 0 0 0-2.34-0.55h-11.006v15.134z" fill="#263238" p-id="12378"></path></svg>