<?xml version="1.0" standalone="no"?><!DOCTYPE svg PUBLIC "-//W3C//DTD SVG 1.1//EN" "http://www.w3.org/Graphics/SVG/1.1/DTD/svg11.dtd"><svg t="1770794472427" class="icon" viewBox="0 0 1191 1024" version="1.1" xmlns="http://www.w3.org/2000/svg" p-id="15704" xmlns:xlink="http://www.w3.org/1999/xlink" width="232.6171875" height="200"><path d="M10.191983 927.292832c-5.631168 0-10.191949-4.560781-10.191949-10.145411s4.560781-10.14541 10.191949-10.14541h890.283027c5.631168 0 10.191949 4.560781 10.191949 10.14541s-4.560781 10.14541-10.191949 10.145411H10.191983z m941.149694 0c-5.631168 0-10.191949-4.560781-10.191949-10.145411s4.560781-10.14541 10.191949-10.14541h31.78585c5.631168 0 10.191949 4.560781 10.191949 10.14541s-4.560781 10.14541-10.191949 10.145411h-31.78585z m114.484906 0c-5.631168 0-10.191949-4.560781-10.191949-10.145411s4.560781-10.14541 10.191949-10.14541h114.438367c5.631168 0 10.191949 4.560781 10.191949 10.14541s-4.560781 10.14541-10.191949 10.145411h-114.438367zM302.733494 1022.464227c-3.630009 0-6.980787-1.908082-8.795791-5.072705-1.815005-3.118085-1.815005-7.027326 0-10.145411 1.815005-3.118085 5.165782-5.072705 8.795791-5.072705h89.028303c3.630009 0 6.980787 1.95462 8.795791 5.072705 1.815005 3.118085 1.815005 7.027326 0 10.145411-1.815005 3.164623-5.165782 5.072705-8.795791 5.072705H302.733494z m146.270756 0c-3.630009 0-6.980787-1.908082-8.795792-5.072705-1.815005-3.118085-1.815005-7.027326 0-10.145411 1.815005-3.118085 5.165782-5.072705 8.795792-5.072705h387.89906c3.630009 0 6.980787 1.95462 8.795792 5.072705 1.815005 3.118085 1.815005 7.027326 0 10.145411-1.815005 3.164623-5.165782 5.072705-8.795792 5.072705H449.00425z m568.468749-352.669356c0-13.542727 20.337359-13.542727 20.337359 0v38.068558a10.191949 10.191949 0 0 1-10.14541 10.145411h-38.161636c-13.542727 0-13.542727-20.290821 0-20.290821h27.969687v-27.923148z m20.383897 76.137116c0 13.542727-20.337359 13.542727-20.337359 0v-38.068558c0-2.699238 1.070387-5.258859 2.978469-7.166941 1.908082-1.908082 4.514242-2.978469 7.21348-2.978469h38.161635c13.589265 0 13.589265 20.290821 0 20.290821h-27.969686v27.923147zM50.91324 365.339484c0-13.542727 20.337359-13.542727 20.33736 0v38.068558c0 5.58463-4.560781 10.14541-10.191949 10.14541h-38.161635c-13.589265 0-13.589265-20.290821 0-20.29082h27.969686v-27.923148z m942.406236-320.930044h34.345472c13.542727 0 13.542727 20.290821 0 20.29082h-34.345472v34.252395c0 13.542727-20.337359 13.542727-20.337359 0v-34.252395h-34.345472c-13.542727 0-13.542727-20.290821 0-20.29082h34.345472V10.157045c0-13.542727 20.337359-13.542727 20.337359 0v34.252395zM71.2506 441.4766c0 13.542727-20.337359 13.542727-20.33736 0v-38.068558c0-5.58463 4.560781-10.14541 10.191949-10.14541h38.161636c13.542727 0 13.542727 20.290821 0 20.29082h-27.969687v27.923148z m0 0" fill="#333745" p-id="15705"></path><path d="M179.266643 775.623601c6.003477-6.003477 14.985423 2.978469 8.981946 8.981946l-13.496188 13.449649c-1.210003 1.210003-2.792315 1.861543-4.514243 1.861544-1.675389 0-3.304239-0.65154-4.514242-1.861544l-13.496188-13.449649c-6.003477-6.003477 2.978469-14.938884 8.981946-8.981946l8.981946 8.981946 9.075023-8.981946z m-17.963892 35.881245c-6.003477 6.003477-14.985423-2.978469-8.981946-8.981946l13.496188-13.449649c1.210003-1.210003 2.792315-1.861543 4.514242-1.861544 1.675389 0 3.304239 0.65154 4.514243 1.861544l13.496188 13.449649c6.003477 6.003477-2.978469 14.938884-8.981946 8.981946l-8.981946-8.981946-9.075023 8.981946zM291.564235 111.657687c6.003477-6.003477 14.985423 2.978469 8.981946 8.981946l-13.496188 13.449649c-1.210003 1.210003-2.792315 1.861543-4.514242 1.861543-1.675389 0-3.304239-0.65154-4.514243-1.861543l-13.496188-13.449649c-6.003477-6.003477 2.978469-14.938884 8.981946-8.981946l8.981946 8.981946 9.075023-8.981946z m-18.01043 35.881245c-6.003477 5.956938-14.985423-2.978469-8.981946-8.981946l13.496188-13.44965c1.210003-1.210003 2.792315-1.861543 4.514242-1.861543 1.675389 0 3.304239 0.65154 4.514242 1.861543l13.496189 13.44965c6.003477 5.956938-2.978469 14.938884-8.981946 8.981946l-8.981946-8.981946-9.075023 8.981946z m0 0" fill="#657180" p-id="15706"></path><path d="M391.761797 416.113074h381.569813c21.081977 0 38.161635 17.03312 38.161636 38.068558v291.750355c0 21.035438-17.079659 38.068558-38.161636 38.068558H391.761797c-21.081977 0-38.161635-17.03312-38.161635-38.068558v-291.796893c0-20.988899 17.079659-38.022019 38.161635-38.02202z m0 0" fill="#9EA7B4" p-id="15707"></path><path d="M315.438526 416.113074h534.169816c21.081977 0 38.161635 17.03312 38.161635 38.068558v88.79561c0 21.035438-17.079659 38.068558-38.161635 38.068558H315.438526c-21.081977 0-38.161635-17.03312-38.161635-38.068558V454.135094c0-20.988899 17.079659-38.022019 38.161635-38.02202z m0 215.613239h534.169816c21.081977 0 38.161635 17.03312 38.161635 38.068558v88.79561c0 21.035438-17.079659 38.068558-38.161635 38.068558H315.438526c-21.081977 0-38.161635-17.03312-38.161635-38.068558v-88.79561c0-20.988899 17.079659-38.068558 38.161635-38.068558z m0 0" fill="#D0E639" p-id="15708"></path><path d="M474.414314 530.27221c-11.355413 0-21.873132-6.050015-27.550839-15.869656a31.70208 31.70208 0 0 1 0-31.739311 31.832388 31.832388 0 0 1 27.550839-15.869656c17.545044 0 31.78585 14.194267 31.78585 31.692773s-14.194267 31.78585-31.78585 31.78585z m-101.733335 0c-11.355413 0-21.873132-6.050015-27.550839-15.869656a31.70208 31.70208 0 0 1 0-31.739311 31.832388 31.832388 0 0 1 27.550839-15.869656c17.545044 0 31.78585 14.194267 31.78585 31.692773s-14.240805 31.78585-31.78585 31.78585z m101.733335 215.659777c-17.545044 0-31.78585-14.194267-31.78585-31.692772s14.240805-31.692773 31.78585-31.692773 31.78585 14.194267 31.78585 31.692773-14.194267 31.692773-31.78585 31.692772z m-101.733335 0c-17.545044 0-31.78585-14.194267-31.78585-31.692772s14.240805-31.692773 31.78585-31.692773 31.78585 14.194267 31.78585 31.692773-14.240805 31.692773-31.78585 31.692772z m0 0" fill="#FCFFE7" p-id="15709"></path><path d="M881.114961 243.59456l152.088077 221.570177c8.004636 11.634645 8.888869 26.759683 2.280391 39.232023a38.189558 38.189558 0 0 1-33.74047 20.29082h-304.176156c-14.147728 0-27.131992-7.818481-33.74047-20.29082a37.914981 37.914981 0 0 1 2.28039-39.232023l152.088078-221.570177a38.175597 38.175597 0 0 1 31.506618-16.567734c12.518878 0.046539 24.293139 6.23617 31.413542 16.567734z m0 0" fill="#FFDB00" p-id="15710"></path><path d="M879.16034 340.953268l-10.610796 72.320953a12.728302 12.728302 0 0 1-12.611955 10.843489h-7.073864c-6.329247 0-11.681183-4.607319-12.611955-10.843489l-10.610796-72.320953c-1.070387-7.306557 1.070387-14.659653 5.910399-20.244282a25.465911 25.465911 0 0 1 19.220434-8.795791h3.118085c7.399634 0 14.42696 3.211162 19.220433 8.795791a24.949332 24.949332 0 0 1 6.050015 20.244282z m-25.596219 131.518026h-1.489234c-9.447332 0-17.126197-7.678866-17.126197-17.079659 0-9.447332 7.678866-17.079659 17.126197-17.079658h1.489234c9.447332 0 17.126197 7.632327 17.126198 17.079658 0 9.400793-7.678866 17.079659-17.126198 17.079659z m0 0" fill="#333745" p-id="15711"></path></svg>